<svg width="50" height="50" fill="none" xmlns="http://www.w3.org/2000/svg"><circle cx="25" cy="25" r="25" fill="#FFD6CD"/><path d="M38.83 17.889h-.002v-.742c0-.735-.598-1.334-1.333-1.334-.227 0-.437.063-.624.162a1.333 1.333 0 00-1.327-1.259c-.735 0-1.333.598-1.333 1.334v1.839h-1.199v-4.643c0-.687-.559-1.246-1.245-1.246-.688 0-1.246.559-1.246 1.246v2.66l-.015-.002h-3.082c-.272 0-.528.105-.72.297l-1.432 1.428a.3.3 0 01-.213.088h-.793a.299.299 0 01-.213-.087L22.62 16.2a1.013 1.013 0 00-.72-.297h-3.082l-.015.001v-2.66a1.246 1.246 0 00-2.491.001v4.643h-1.198V16.05c0-.735-.599-1.334-1.334-1.334-.71 0-1.287.56-1.326 1.26a1.318 1.318 0 00-.624-.162c-.736 0-1.334.598-1.334 1.333v.742h-.002a1.496 1.496 0 000 2.99h.002v.742c0 .735.598 1.334 1.334 1.334.226 0 .437-.063.624-.163.04.7.616 1.26 1.326 1.26.735 0 1.334-.599 1.334-1.334v-1.84h1.198v8.076c-.458.154-.812.55-.88 1.026L13.8 37.05a.358.358 0 00.35.44h6.816a.358.358 0 00.35-.44l-1.627-7.04a1.32 1.32 0 00-.886-1.056v-2.023H30.52v2.023c-.459.154-.813.55-.88 1.026l-1.633 7.07a.359.359 0 00.35.44h6.816a.359.359 0 00.35-.44l-1.627-7.04a1.32 1.32 0 00-.885-1.056v-8.076h1.198v1.84a1.332 1.332 0 002.66.075c.188.099.398.161.624.161.736 0 1.334-.598 1.334-1.334v-.742h.002a1.496 1.496 0 000-2.99zm-28.335 2.273a.779.779 0 010-1.556h.002v1.555h-.002zm1.336 2.075a.617.617 0 01-.617-.617v-4.473a.617.617 0 011.233 0v4.473c0 .34-.276.617-.616.617zm2.566.48a.617.617 0 01-1.233 0V16.05a.617.617 0 011.233 0v6.668zm17.37-10a.53.53 0 01.528.529v4.06l-1.057-1.092v-2.968c0-.292.237-.528.529-.528zm-14.208 0a.53.53 0 01.528.529v2.969l-1.056 1.091v-4.06c0-.292.237-.528.528-.528zm.528 16.165h-1.056v-8.016c.226-.03.44-.132.6-.297l.456-.471v8.785zm2.43 7.89h-5.915l1.537-6.66a.6.6 0 01.591-.512h1.658c.296 0 .55.22.598.543l1.53 6.63zm10-10.558H18.805v-1.036h11.713v1.035zM18.805 24.46v-5.105l.36-.37a.302.302 0 01.215-.092h1.976a.3.3 0 01.213.088L23 20.41c.193.192.448.298.72.298h1.887c.272 0 .527-.106.72-.298l1.431-1.428a.303.303 0 01.213-.088h1.975c.081 0 .16.033.217.091l.358.37v5.106H18.805zm12.434-4.364l.456.471c.16.166.374.267.6.297v8.017H31.24v-8.785zm3.486 16.675H28.81l1.537-6.66a.6.6 0 01.592-.513h1.658c.295 0 .55.22.597.543l1.53 6.63zm-2.297-16.61a.304.304 0 01-.217-.092l-1.532-1.584a1.026 1.026 0 00-.733-.31h-1.974c-.272 0-.528.106-.72.298l-1.432 1.428a.3.3 0 01-.213.088h-1.886a.3.3 0 01-.213-.088l-1.432-1.429a1.013 1.013 0 00-.72-.297H19.38c-.275 0-.542.113-.732.31l-1.533 1.583a.304.304 0 01-.216.092h-1.784v-1.555h1.224c.274 0 .541-.113.732-.31l1.532-1.584a.303.303 0 01.217-.091h3.081a.3.3 0 01.214.088l1.432 1.428c.192.192.448.298.72.298h.792c.272 0 .528-.106.72-.298l1.432-1.428a.303.303 0 01.213-.088h3.082c.081 0 .16.033.217.091l1.532 1.584c.19.197.458.31.732.31h1.224v1.555h-1.784zm3.734 2.556a.617.617 0 01-1.233 0V16.05a.617.617 0 011.233 0v6.668zm1.95-1.098a.617.617 0 01-1.233 0v-4.473a.617.617 0 011.233 0v4.473zm.72-1.459h-.003v-1.555h.003a.779.779 0 010 1.555z" fill="#AE0F0F"/></svg>